HIERARCHY
ROOT joint_Root
{
	OFFSET 0.0 0.0 0.0
	CHANNELS 6 Xposition Yposition Zposition Zrotation Xrotation Yrotation 
	JOINT Hips
	{
		OFFSET 4.5925 91.4895 -427.239
		CHANNELS 6 Xposition Yposition Zposition Zrotation Xrotation Yrotation 
		JOINT Spine
		{
			OFFSET 15.7357 0.0 0.0
			CHANNELS 6 Xposition Yposition Zposition Zrotation Xrotation Yrotation 
			JOINT Chest
			{
				OFFSET 8.98455 -0.406207 0.0
				CHANNELS 6 Xposition Yposition Zposition Zrotation Xrotation Yrotation 
				JOINT Neck
				{
					OFFSET 16.3773 0.0 0.0
					CHANNELS 6 Xposition Yposition Zposition Zrotation Xrotation Yrotation 
					JOINT Head
					{
						OFFSET 6.45672 0.0 0.0
						CHANNELS 6 Xposition Yposition Zposition Zrotation Xrotation Yrotation 
						End Site
						{
							OFFSET 0.0 0.0 0.0
						}
					}
				}
				JOINT Shoulder_L
				{
					OFFSET 12.9942 -0.242716 4.98039
					CHANNELS 6 Xposition Yposition Zposition Zrotation Xrotation Yrotation 
					JOINT UpperArm_L
					{
						OFFSET 5.34809 0.0 0.0
						CHANNELS 6 Xposition Yposition Zposition Zrotation Xrotation Yrotation 
						JOINT LowerArm_L
						{
							OFFSET 24.3286 1.87007e-05 0.0
							CHANNELS 6 Xposition Yposition Zposition Zrotation Xrotation Yrotation 
							JOINT Hand_L
							{
								OFFSET 22.2916 0.0 0.0
								CHANNELS 6 Xposition Yposition Zposition Zrotation Xrotation Yrotation 
								End Site
								{
									OFFSET 0.0 0.0 0.0
								}
							}
						}
					}
				}
				JOINT Shoulder_R
				{
					OFFSET 12.9945 -0.242716 -4.98039
					CHANNELS 6 Xposition Yposition Zposition Zrotation Xrotation Yrotation 
					JOINT UpperArm_R
					{
						OFFSET -5.34813 0.0 0.0
						CHANNELS 6 Xposition Yposition Zposition Zrotation Xrotation Yrotation 
						JOINT LowerArm_R
						{
							OFFSET -24.3289 0.000322201 0.0
							CHANNELS 6 Xposition Yposition Zposition Zrotation Xrotation Yrotation 
							JOINT Hand_R
							{
								OFFSET -22.2915 -0.000108084 0.0
								CHANNELS 6 Xposition Yposition Zposition Zrotation Xrotation Yrotation 
								End Site
								{
									OFFSET 0.0 0.0 0.0
								}
							}
						}
					}
				}
			}
		}
		JOINT UpperLeg_L
		{
			OFFSET -2.19248 -6.46944 0.0
			CHANNELS 6 Xposition Yposition Zposition Zrotation Xrotation Yrotation 
			JOINT LowerLeg_L
			{
				OFFSET 39.0811 0.0 -1.23785e-05
				CHANNELS 6 Xposition Yposition Zposition Zrotation Xrotation Yrotation 
				JOINT Foot_L
				{
					OFFSET 40.9854 0.0 -1.26872e-05
					CHANNELS 6 Xposition Yposition Zposition Zrotation Xrotation Yrotation 
					JOINT Toes_L
					{
						OFFSET 11.7543 0.0 0.0
						CHANNELS 6 Xposition Yposition Zposition Zrotation Xrotation Yrotation 
						End Site
						{
							OFFSET 0.0 0.0 0.0
						}
					}
				}
			}
		}
		JOINT UpperLeg_R
		{
			OFFSET -2.19251 6.46944 0.0
			CHANNELS 6 Xposition Yposition Zposition Zrotation Xrotation Yrotation 
			JOINT LowerLeg_R
			{
				OFFSET -39.0811 -0.00228153 -0.0401928
				CHANNELS 6 Xposition Yposition Zposition Zrotation Xrotation Yrotation 
				JOINT Foot_R
				{
					OFFSET -40.9854 0.0 0.0
					CHANNELS 6 Xposition Yposition Zposition Zrotation Xrotation Yrotation 
					JOINT Toes_R
					{
						OFFSET -11.7543 0.0 0.0
						CHANNELS 6 Xposition Yposition Zposition Zrotation Xrotation Yrotation 
						End Site
						{
							OFFSET 0.0 0.0 0.0
						}
					}
				}
			}
		}
	}
}
MOTION
Frames:	9
Frame Time:	0.0333333
0.000000 0.000000 0.000000 0.000000 0.000000 -0.000000 -14.740700 93.906400 68.690700 -87.642300 14.457800 174.813000 15.735700 0.000005 -0.000001 143.053000 82.618800 -143.291000 8.984550 -0.406207 -0.000000 1.162190 11.806600 -0.596927 16.377300 -0.000001 -0.000001 -2.729360 -0.756115 -0.738185 6.456720 -0.000001 -0.000000 -8.109250 -5.804420 -0.421905 12.994200 -0.242716 4.980390 -84.379300 -11.031100 -62.781300 5.348090 -0.000007 -0.000001 -72.609400 34.604000 26.153500 24.328600 0.000019 0.000005 18.491000 -7.839430 -112.189000 22.291600 -0.000001 0.000005 1.324320 5.453670 -4.771490 12.994500 -0.242716 -4.980390 90.518200 -3.765630 -82.158800 -5.348130 -0.000001 -0.000004 -65.278500 41.711700 -18.246200 -24.328900 0.000322 -0.000009 -8.080940 2.920390 -109.741000 -22.291500 -0.000108 -0.000004 16.657000 5.558190 -9.100500 -2.192480 -6.469440 -0.000000 -178.717000 -5.809660 -26.142400 39.081100 -0.000007 -0.000012 0.004574 -0.011613 21.497900 40.985400 -0.000006 -0.000013 1.681650 0.130597 -70.856000 11.754300 -0.000000 0.000003 -0.006721 -0.077261 -19.721800 -2.192510 6.469440 -0.000001 175.497000 9.510220 -171.072000 -39.081100 -0.002282 -0.040193 0.171655 -0.172194 44.359900 -40.985400 0.000008 0.000006 4.687300 0.578541 -42.474900 -11.754300 -0.000006 -0.000006 -0.019842 -0.166411 -23.371700
0.000000 0.000000 0.000000 0.000000 0.000000 -0.000000 -13.699200 92.581300 58.608800 -86.213200 13.892100 176.460000 15.735700 0.000005 -0.000001 137.389000 82.678800 -137.514000 8.984550 -0.406207 -0.000000 2.196280 10.774800 -0.456362 16.377300 -0.000001 -0.000001 -3.133110 -0.632558 -0.833231 6.456720 -0.000001 -0.000000 -8.999370 -5.588990 -1.068050 12.994200 -0.242716 4.980390 -84.877900 -10.309200 -63.396200 5.348090 -0.000007 -0.000001 -70.422300 28.670100 26.571200 24.328600 0.000019 0.000005 16.947900 -8.311060 -115.379000 22.291600 -0.000001 0.000005 0.765943 5.439480 -4.268830 12.994500 -0.242716 -4.980390 90.335000 -2.326930 -81.799500 -5.348130 -0.000001 -0.000004 -64.271400 43.418700 -16.420100 -24.328900 0.000322 -0.000009 -7.978380 2.339540 -106.234000 -22.291500 -0.000108 -0.000004 15.190500 5.554730 -8.927640 -2.192480 -6.469440 -0.000000 -178.125000 -8.911440 -23.460100 39.081100 -0.000007 -0.000012 -0.027283 0.088676 17.101500 40.985400 -0.000006 -0.000013 -1.852310 4.140560 -73.001100 11.754300 -0.000000 0.000003 -0.006878 -0.078623 -19.777400 -2.192510 6.469440 -0.000001 178.855000 6.237070 -170.933000 -39.081100 -0.002282 -0.040193 0.176191 -0.112601 56.937100 -40.985400 0.000008 0.000006 8.717210 -6.881450 -42.762100 -11.754300 -0.000006 -0.000006 -0.020204 -0.168416 -23.454300
0.000000 0.000000 0.000000 0.000000 0.000000 -0.000000 -13.374100 90.482600 49.086600 -88.311700 11.760000 178.291000 15.735700 0.000005 -0.000001 124.818000 82.922100 -125.971000 8.984550 -0.406207 -0.000000 3.971300 8.109380 -2.587440 16.377300 -0.000001 -0.000001 -3.827420 -0.861167 -0.652704 6.456720 -0.000001 -0.000000 -10.765100 -5.204660 -0.625812 12.994200 -0.242716 4.980390 -86.855700 -6.788590 -65.086200 5.348090 -0.000007 -0.000001 -65.479000 22.118600 23.976300 24.328600 0.000019 0.000005 15.023300 -8.486370 -118.806000 22.291600 -0.000001 0.000005 1.938920 5.431210 -3.982660 12.994500 -0.242716 -4.980390 89.850400 0.956306 -81.122200 -5.348130 -0.000001 -0.000004 -64.385800 43.025600 -11.936800 -24.328900 0.000322 -0.000009 -6.550890 1.514470 -102.953000 -22.291500 -0.000108 -0.000004 13.997900 5.541750 -8.320760 -2.192480 -6.469440 -0.000000 177.449000 -9.361620 -28.034100 39.081100 -0.000007 -0.000012 0.313521 -0.542029 30.046500 40.985400 -0.000006 -0.000013 3.928990 -0.754140 -69.709100 11.754300 -0.000000 0.000003 -0.007869 -0.086971 -20.118200 -2.192510 6.469440 -0.000001 177.732000 6.307240 -175.461000 -39.081100 -0.002282 -0.040193 0.147495 -0.039181 74.825400 -40.985400 0.000008 0.000006 9.536620 -7.121520 -41.245800 -11.754300 -0.000006 -0.000006 -0.017903 -0.155384 -22.917800
0.000000 0.000000 0.000000 0.000000 0.000000 -0.000000 -13.334600 87.170500 40.425100 -90.280700 8.862880 178.592000 15.735700 0.000005 -0.000001 112.120000 83.309000 -114.106000 8.984550 -0.406207 -0.000000 4.737410 5.082160 -4.180170 16.377300 -0.000001 -0.000001 -4.375560 -1.329710 -0.491919 6.456720 -0.000001 -0.000000 -11.714600 -4.994270 0.052663 12.994200 -0.242716 4.980390 -89.132200 -2.137440 -67.961800 5.348090 -0.000007 -0.000001 -60.608700 15.654000 18.596500 24.328600 0.000019 0.000005 13.798800 -8.547980 -121.183000 22.291600 -0.000001 0.000005 3.258740 5.445760 -4.487330 12.994500 -0.242716 -4.980390 89.298700 4.347360 -80.830100 -5.348130 -0.000001 -0.000004 -66.557400 39.605600 -3.535410 -24.328900 0.000322 -0.000009 -6.128210 1.045550 -99.649600 -22.291500 -0.000108 -0.000004 14.722400 5.543760 -8.399080 -2.192480 -6.469440 -0.000000 175.400000 -5.201760 -31.944400 39.081100 -0.000007 -0.000012 -0.008829 0.008912 44.739700 40.985400 -0.000006 -0.000013 4.374930 -3.079680 -64.978000 11.754300 -0.000000 0.000003 -0.001959 -0.028212 -17.724000 -2.192510 6.469440 -0.000001 176.194000 7.652230 174.930000 -39.081100 -0.002282 -0.040193 0.153579 0.013353 95.110900 -40.985400 0.000008 0.000006 6.961750 -5.878570 -40.023200 -11.754300 -0.000006 -0.000006 -0.018213 -0.157184 -22.991900
0.000000 0.000000 0.000000 0.000000 0.000000 -0.000000 -13.300300 83.761600 31.817100 -90.840200 6.415010 179.729000 15.735700 0.000005 -0.000001 100.464000 83.029800 -102.579000 8.984550 -0.406207 -0.000000 5.998020 2.557790 -4.358470 16.377300 -0.000001 -0.000001 -4.879560 -2.122800 -0.245860 6.456720 -0.000001 -0.000000 -11.848900 -4.114840 0.209177 12.994200 -0.242716 4.980390 -90.930200 2.670110 -70.777100 5.348090 -0.000007 -0.000001 -57.872500 10.569400 9.042130 24.328600 0.000019 0.000005 11.600500 -6.763850 -119.833000 22.291600 -0.000001 0.000005 1.816450 5.457960 -4.914150 12.994500 -0.242716 -4.980390 88.852200 6.690280 -80.243300 -5.348130 -0.000001 -0.000004 -68.826700 34.523000 4.888950 -24.328900 0.000322 -0.000009 -7.900100 0.250111 -91.823000 -22.291500 -0.000108 -0.000004 19.451800 5.584760 -10.373500 -2.192480 -6.469440 -0.000000 174.473000 -0.826987 -30.977500 39.081100 -0.000007 -0.000012 -0.486569 0.308808 57.599300 40.985400 -0.000006 -0.000013 3.530650 -5.812700 -77.365300 11.754300 -0.000000 0.000003 -0.000145 -0.001407 -16.631100 -2.192510 6.469440 -0.000001 176.825000 8.030340 164.389000 -39.081100 -0.002282 -0.040193 -0.056534 -0.024870 112.484000 -40.985400 0.000008 0.000006 8.961050 -4.536950 -39.821000 -11.754300 -0.000006 -0.000006 -0.017428 -0.152599 -22.803300
0.000000 0.000000 0.000000 0.000000 0.000000 -0.000000 -13.513800 81.905500 23.492700 -92.087200 5.094990 179.670000 15.735700 0.000005 -0.000001 91.576000 82.824400 -94.130900 8.984550 -0.406207 -0.000000 6.594370 0.419453 -5.128500 16.377300 -0.000001 -0.000001 -4.970110 -2.442130 0.081467 6.456720 -0.000001 -0.000000 -12.186300 -3.142000 1.129130 12.994200 -0.242716 4.980390 -91.570600 4.762850 -71.724300 5.348090 -0.000007 -0.000001 -60.612400 9.577270 -5.810190 24.328600 0.000019 0.000005 13.105300 -6.105040 -114.558000 22.291600 -0.000001 0.000005 1.436830 5.448890 -4.597540 12.994500 -0.242716 -4.980390 88.679900 6.822470 -79.020800 -5.348130 -0.000001 -0.000004 -71.102000 30.442100 10.280000 -24.328900 0.000322 -0.000009 -5.479110 -0.986620 -79.769200 -22.291500 -0.000108 -0.000004 25.830700 5.545310 -8.488980 -2.192480 -6.469440 -0.000000 172.479000 -2.537370 -26.150600 39.081100 -0.000007 -0.000012 -0.635304 0.348269 61.270200 40.985400 -0.000006 -0.000013 4.927110 -4.582990 -86.062900 11.754300 -0.000000 0.000003 -0.000289 -0.002519 -16.671500 -2.192510 6.469440 -0.000001 176.893000 7.063950 150.464000 -39.081100 -0.002282 -0.040193 -0.360996 -0.241141 123.490000 -40.985400 0.000008 0.000006 11.561400 -5.370960 -39.185800 -11.754300 -0.000006 -0.000006 -0.016175 -0.145092 -22.494700
0.000000 0.000000 0.000000 0.000000 0.000000 -0.000000 -13.102400 81.878200 14.530500 -90.726500 3.042660 178.659000 15.735700 0.000005 -0.000001 80.804700 82.958200 -82.732000 8.984550 -0.406207 -0.000000 6.105650 -2.216470 -3.732410 16.377300 -0.000001 -0.000001 -5.067050 -2.539360 0.023225 6.456720 -0.000001 -0.000000 -11.139800 -2.043300 1.924940 12.994200 -0.242716 4.980390 -91.123400 3.779330 -73.441400 5.348090 -0.000007 -0.000001 -67.043100 11.699000 -16.748800 24.328600 0.000019 0.000005 16.802000 -7.623100 -113.713000 22.291600 -0.000001 0.000005 2.564870 5.452450 -4.728350 12.994500 -0.242716 -4.980390 88.585100 6.423730 -77.548200 -5.348130 -0.000001 -0.000004 -71.290000 28.854700 17.573700 -24.328900 0.000322 -0.000009 -6.412530 -1.150500 -79.822700 -22.291500 -0.000108 -0.000004 21.968300 5.578860 -10.182400 -2.192480 -6.469440 -0.000000 174.571000 -3.656280 -17.747700 39.081100 -0.000007 -0.000012 -0.611249 0.388364 57.571200 40.985400 -0.000006 -0.000013 5.991150 -2.153210 -91.662800 11.754300 -0.000000 0.000003 -0.000308 -0.002662 -16.676600 -2.192510 6.469440 -0.000001 -179.775000 7.565830 139.781000 -39.081100 -0.002282 -0.040193 -0.499272 -0.344138 124.392000 -40.985400 0.000008 0.000006 14.820000 -10.909300 -43.345100 -11.754300 -0.000006 -0.000006 -0.016929 -0.149639 -22.681600
0.000000 0.000000 0.000000 0.000000 0.000000 -0.000000 -12.206900 83.748200 4.710080 -87.783100 0.142214 176.262000 15.735700 0.000005 -0.000001 63.229500 83.236300 -63.572400 8.984550 -0.406207 -0.000000 4.313150 -6.072730 -0.456683 16.377300 -0.000001 -0.000001 -4.798840 -2.493390 0.041419 6.456720 -0.000001 -0.000000 -10.740500 0.775800 1.406440 12.994200 -0.242716 4.980390 -90.291600 1.094830 -75.109000 5.348090 -0.000007 -0.000001 -71.748500 16.686500 -22.035700 24.328600 0.000019 0.000005 17.576300 -9.133090 -116.618000 22.291600 -0.000001 0.000005 5.374780 5.446010 -4.500800 12.994500 -0.242716 -4.980390 88.867700 4.343470 -75.363200 -5.348130 -0.000001 -0.000004 -71.143400 32.848400 23.966400 -24.328900 0.000322 -0.000009 -8.419230 -0.523365 -86.484800 -22.291500 -0.000108 -0.000004 18.117500 5.588390 -10.687600 -2.192480 -6.469440 -0.000000 178.637000 -3.002340 -6.774480 39.081100 -0.000007 -0.000012 0.106216 -0.105065 45.311200 40.985400 -0.000006 -0.000013 9.699420 -1.160950 -90.926000 11.754300 -0.000000 0.000003 -1.480980 -1.837920 -17.427600 -2.192510 6.469440 -0.000001 -174.605000 7.236790 133.117000 -39.081100 -0.002282 -0.040193 -0.401683 -0.195540 115.760000 -40.985400 0.000008 0.000006 15.027800 -15.080900 -49.869700 -11.754300 -0.000006 -0.000006 -0.016728 -0.148438 -22.632200
0.000000 0.000000 0.000000 0.000000 0.000000 -0.000000 -11.365800 86.929300 -5.280040 -84.952400 -2.770500 172.780000 15.735700 0.000005 -0.000001 43.693500 83.036700 -42.191900 8.984550 -0.406207 -0.000000 2.020810 -10.138600 3.185660 16.377300 -0.000001 -0.000001 -4.984640 -2.237150 0.469348 6.456720 -0.000001 -0.000000 -10.161500 3.407420 1.312500 12.994200 -0.242716 4.980390 -89.510400 -1.990550 -76.169800 5.348090 -0.000007 -0.000001 -72.545500 23.536900 -24.818500 24.328600 0.000019 0.000005 13.179100 -7.612930 -119.502000 22.291600 -0.000001 0.000005 7.559180 5.468530 -5.316440 12.994500 -0.242716 -4.980390 89.485500 1.756720 -73.655000 -5.348130 -0.000001 -0.000004 -71.295400 35.909900 28.315100 -24.328900 0.000322 -0.000009 -5.824740 0.323107 -93.170600 -22.291500 -0.000108 -0.000004 13.885400 5.590910 -10.802700 -2.192480 -6.469440 -0.000000 -176.369000 -2.894390 -0.997666 39.081100 -0.000007 -0.000012 0.054763 -0.075508 35.951200 40.985400 -0.000006 -0.000013 8.628950 4.382130 -75.783800 11.754300 -0.000000 0.000003 -0.071725 -0.368141 -31.827600 -2.192510 6.469440 -0.000001 -170.915000 5.399120 129.067000 -39.081100 -0.002282 -0.040193 -0.171613 -0.032458 100.483000 -40.985400 0.000008 0.000006 12.127400 -13.789800 -56.682700 -11.754300 -0.000006 -0.000006 -0.016936 -0.149683 -22.683400
